<svg height="469pt" viewBox="0 0 469.625 469" width="469pt" xmlns="http://www.w3.org/2000/svg"><path d="m296.433594 256.140625v42.5c0 8.539063-13.269532 15.957031-32.75 19.699219-9.5 1.753906-19.140625 2.617187-28.800782 2.578125-34 0-61.558593-9.96875-61.558593-22.277344v-42.5c0 12.308594 27.558593 22.277344 61.558593 22.277344s61.550782-9.96875 61.550782-22.277344zm0 0" fill="#00acea"/><path d="m296.433594 255.257812v.882813c0 12.308594-27.550782 22.277344-61.550782 22.277344s-61.558593-9.96875-61.558593-22.277344v-42.199219c0 12.308594 27.558593 22.269532 61.558593 22.269532s61.550782-9.960938 61.550782-22.269532zm0 0" fill="#00efd1"/><path d="m296.433594 171.730469v42.210937c0 12.308594-27.550782 22.269532-61.550782 22.269532s-61.558593-9.960938-61.558593-22.269532v-42.210937c0 12.300781 27.558593 22.277343 61.558593 22.277343s61.550782-9.976562 61.550782-22.277343zm0 0" fill="#00acea"/><path d="m234.882812 149.449219c33.988282 0 61.550782 9.980469 61.550782 22.28125s-27.5625 22.277343-61.550782 22.277343c-33.988281 0-61.558593-9.976562-61.558593-22.277343s27.558593-22.28125 61.558593-22.28125zm0 0" fill="#00efd1"/><g fill="#083863"><path d="m19.300781 104.390625c-.992187-11.285156-.335937-22.660156 1.953125-33.753906 3.070313-13.828125 9.085938-25.292969 17.886719-34.082031 12.328125-12.335938 29.664063-19.101563 51.464844-20.109376 10.5625-.394531 21.136719.324219 31.546875 2.144532l2.761718-15.761719c-11.542968-2.015625-23.269531-2.8125-34.980468-2.371094-25.972656 1.199219-46.871094 9.539063-62.097656 24.78125-11 10.988281-18.472657 25.117188-22.207032 41.992188l-.023437.105469c-2.613281 12.640624-3.367188 25.59375-2.238281 38.453124zm0 0"/><path d="m8.019531 135.292969c2.003907 8.578125 4.445313 17.046875 7.304688 25.378906l15.140625-5.175781c-2.683594-7.816406-4.972656-15.761719-6.859375-23.8125zm0 0"/><path d="m54.398438 208.933594c-4.824219-8.792969-9.242188-17.632813-13.136719-26.269532l-14.585938 6.578126c4.066407 9.015624 8.671875 18.226562 13.691407 27.382812zm0 0"/><path d="m116.871094 297.039062c-.695313-.792968-1.390625-1.585937-2.078125-2.382812l-12.078125 10.488281c.707031.820313 1.421875 1.636719 2.140625 2.453125 3.960937 4.511719 8.191406 9.175782 12.570312 13.867188 1.910157 2.042968 3.84375 4.082031 5.800781 6.113281l11.539063-11.078125c-1.90625-1.984375-3.789063-3.972656-5.652344-5.960938-4.269531-4.566406-8.386719-9.109374-12.242187-13.5zm0 0"/><path d="m83.378906 281.640625 12.636719-9.816406c-1.164063-1.496094-2.3125-2.996094-3.457031-4.5-4.867188-6.398438-9.582032-12.898438-14-19.328125l-13.175782 9.078125c4.5625 6.628906 9.425782 13.335937 14.441407 19.929687 1.171875 1.550782 2.355469 3.09375 3.554687 4.636719zm0 0"/><path d="m136.84375 341.28125c15.109375 14.753906 31.011719 28.671875 47.640625 41.695312 22.550781 17.742188 46.621094 33.464844 71.929687 46.988282 14.777344 7.871094 30.097657 14.6875 45.835938 20.398437l-14.605469 4.183594 4.402344 15.378906 40.609375-11.625.25-.070312c2.050781-.574219 3.789062-1.941407 4.828125-3.800781 1.042969-1.859376 1.296875-4.058594.710937-6.105469l-10.671874-37.257813-15.382813 4.40625 6.78125 23.671875c-19.101563-6.042969-37.601563-13.84375-55.257813-23.3125-24.472656-13.078125-47.742187-28.285156-69.550781-45.441406-16.171875-12.664063-31.640625-26.203125-46.339843-40.554687zm0 0"/><path d="m464.613281 343.894531c-3.269531-20.398437-10.019531-42.351562-20.0625-65.25l-14.652343 6.429688c9.5 21.652343 15.863281 42.292969 18.914062 61.347656 5.722656 35.785156-.566406 64.011719-18.1875 81.628906-8.722656 8.726563-20.074219 14.714844-33.726562 17.792969-11.027344 2.480469-23.550782 3.074219-37.230469 1.761719-3.355469-.320313-6.828125-.765625-10.324219-1.316407l-2.5 15.796876c3.8125.601562 7.613281 1.089843 11.296875 1.445312 5.21875.5 10.300781.75 15.246094.75 9.085937.054688 18.152343-.894531 27.027343-2.832031 16.660157-3.757813 30.632813-11.1875 41.527344-22.085938 21.394532-21.394531 29.234375-54.40625 22.671875-95.46875zm0 0"/><path d="m425.835938 241.597656-13.902344 7.921875c3.863281 6.78125 7.5 13.589844 10.792968 20.234375l14.332032-7.109375c-3.433594-6.925781-7.210938-14.003906-11.222656-21.046875zm0 0"/><path d="m388.6875 185.980469-12.707031 9.722656c5.953125 7.785156 11.777343 15.847656 17.308593 23.960937l13.222657-9.011718c-5.699219-8.355469-11.691407-16.652344-17.824219-24.671875zm0 0"/><path d="m349.140625 139.746094-11.574219 11.046875c6.777344 7.101562 13.445313 14.476562 19.820313 21.929687l12.160156-10.398437c-6.566406-7.675781-13.433594-15.273438-20.40625-22.578125zm0 0"/><path d="m142.789062 18.773438 8.089844 37.828124 15.648438-3.34375-5.167969-24.167968c14.683594 5.207031 28.96875 11.476562 42.742187 18.765625 24.15625 12.75 47.148438 27.59375 68.710938 44.359375 10.175781 7.847656 20.417969 16.359375 30.441406 25.296875 5.464844 4.878906 11.0625 10.082031 16.644532 15.476562 2.324218 2.238281 4.753906 4.621094 7.214843 7.082031l11.3125-11.3125c-2.53125-2.53125-5.03125-4.988281-7.417969-7.289062-5.722656-5.527344-11.476562-10.875-17.101562-15.898438-10.308594-9.1875-20.84375-17.945312-31.289062-26-10.167969-7.90625-20.703126-15.398437-31.5-22.492187 6.136718-3.460937 12.296874-6.738281 18.335937-9.738281l-7.117187-14.332032c-7.175782 3.566407-14.503907 7.488282-21.78125 11.65625l5.085937 8.871094c-11.09375-7.066406-22.449219-13.671875-34.0625-19.820312-10.332031-5.460938-20.945313-10.382813-31.792969-14.742188l14.101563-3.015625-3.347657-15.644531-41.609374 8.898438c-4.109376.914062-6.828126 4.832031-6.238282 9 .023438.1875.058594.375.097656.5625zm0 0"/><path d="m2.523438 345.160156c-2.019532 11.539063-2.816407 23.261719-2.371094 34.96875 1.199218 25.980469 9.535156 46.878906 24.773437 62.117188 11.011719 11.011718 25.144531 18.476562 42.101563 22.207031 8.824218 1.832031 17.816406 2.757813 26.832031 2.753906 3.871094 0 7.746094-.167969 11.625-.507812l-1.398437-15.9375c-11.273438.996093-22.632813.335937-33.714844-1.957031-13.832032-3.042969-25.316406-9.054688-34.132813-17.871094-12.328125-12.332032-19.09375-29.671875-20.097656-51.476563-.398437-10.558593.320313-21.128906 2.140625-31.539062zm0 0"/><path d="m134.988281 462.042969c8.574219-2.003907 17.042969-4.441407 25.371094-7.300781l-5.171875-15.140626c-7.816406 2.683594-15.761719 4.972657-23.808594 6.859376zm0 0"/><path d="m188.933594 443.390625c9.011718-4.0625 18.226562-8.667969 27.382812-13.6875l-7.6875-14.03125c-8.800781 4.824219-17.636718 9.242187-26.273437 13.132813zm0 0"/><path d="m247.695312 391.507812 9.074219 13.175782c6.703125-4.617188 13.414063-9.480469 19.929688-14.441406 1.546875-1.175782 3.09375-2.363282 4.636719-3.5625l-9.824219-12.632813c-1.492188 1.164063-2.992188 2.316406-4.5 3.457031-6.320313 4.816406-12.820313 9.53125-19.316407 14.003906zm0 0"/><path d="m294.355469 355.273438 10.484375 12.085937c.816406-.707031 1.632812-1.421875 2.457031-2.144531 4.480469-3.9375 9.136719-8.164063 13.859375-12.5625 2.046875-1.914063 4.085938-3.851563 6.117188-5.8125l-11.082032-11.539063c-1.984375 1.898438-3.96875 3.796875-5.953125 5.65625-4.597656 4.285157-9.144531 8.40625-13.5 12.238281-.792969.695313-1.589843 1.386719-2.382812 2.078126zm0 0"/><path d="m346.113281 21.25c35.785157-5.71875 64.007813.566406 81.628907 18.1875 8.726562 8.722656 14.714843 20.078125 17.792968 33.738281 2.480469 11.023438 3.074219 23.546875 1.761719 37.21875-.320313 3.355469-.765625 6.828125-1.320313 10.324219l15.804688 2.5c.601562-3.816406 1.089844-7.617188 1.441406-11.292969 1.476563-15.363281.773438-29.582031-2.078125-42.265625-3.753906-16.664062-11.183593-30.640625-22.085937-41.539062-21.398438-21.402344-54.40625-29.242188-95.472656-22.671875-20.398438 3.265625-42.351563 10.015625-65.246094 20.0625l6.425781 14.652343c21.65625-9.5 42.296875-15.863281 61.347656-18.914062zm0 0"/><path d="m172.414062 112.675781-10.402343-12.15625c-7.675781 6.566407-15.273438 13.433594-22.578125 20.40625l11.050781 11.574219c7.097656-6.78125 14.476563-13.445312 21.929687-19.824219zm0 0"/><path d="m219.359375 76.78125-9.007813-13.226562c-8.347656 5.6875-16.648437 11.683593-24.671874 17.820312l9.71875 12.710938c7.792968-5.960938 15.855468-11.785157 23.960937-17.304688zm0 0"/><path d="m457.996094 137.402344-.070313-.25c-.578125-2.046875-1.945312-3.78125-3.804687-4.816406-1.855469-1.039063-4.050782-1.292969-6.097656-.707032l-37.257813 10.660156 4.398437 15.382813 23.671876-6.773437c-6.046876 19.097656-13.847657 37.597656-23.3125 55.253906-13.074219 24.472656-28.277344 47.742187-45.4375 69.546875-12.667969 16.175781-26.207032 31.648437-40.554688 46.351562l11.445312 11.175781c14.753907-15.113281 28.667969-31.019531 41.691407-47.648437 17.746093-22.546875 33.46875-46.617187 46.988281-71.925781 7.871094-14.78125 14.6875-30.101563 20.402344-45.839844l4.183594 14.609375 15.382812-4.398437zm0 0"/><path d="m16.78125 327.449219c.371094 0 .742188-.023438 1.113281-.074219.191407-.027344.382813-.0625.570313-.101562l37.832031-8.089844-3.347656-15.644532-24.167969 5.167969c5.203125-14.6875 11.476562-28.972656 18.769531-42.746093 12.75-24.152344 27.59375-47.148438 44.355469-68.714844 7.851562-10.175782 16.363281-20.417969 25.289062-30.433594 5.019532-5.613281 10.222657-11.210938 15.480469-16.652344 2.105469-2.1875 4.359375-4.476562 7.085938-7.199218l-11.316407-11.3125c-2.800781 2.800781-5.113281 5.152343-7.285156 7.40625-5.390625 5.582031-10.738281 11.332031-15.902344 17.105468-9.183593 10.304688-17.941406 20.84375-26 31.292969-17.324218 22.296875-32.667968 46.0625-45.851562 71.035156-5.464844 10.332031-10.386719 20.941407-14.742188 31.789063l-3.015624-14.097656-15.648438 3.339843 8.898438 41.609375c.816406 3.695313 4.097656 6.328125 7.882812 6.320313zm0 0"/><path d="m165.8125 171.730469v126.910156c0 6.769531 3.800781 16.308594 23.0625 23.277344 12.476562 4.515625 28.78125 7 46.101562 7h.597657c10.007812-.003907 19.996093-.917969 29.835937-2.722657 24.941406-4.789062 39.402344-14.832031 39.402344-27.558593v-126.90625c0-6.769531-4.234375-16.300781-23.5-23.277344-12.480469-4.515625-29-7-46.339844-7s-33.574218 2.488281-46.054687 7c-19.257813 6.972656-23.105469 16.507813-23.105469 23.277344zm123 126.910156c0 1.5-6.476562 8.007813-26.386719 11.832031-9.054687 1.664063-18.242187 2.484375-27.449219 2.445313-15.539062 0-29.832031-2.144531-40.609374-6.046875-10.535157-3.8125-12.554688-7.636719-12.554688-8.230469v-22.332031c2.277344 1.207031 4.636719 2.246094 7.0625 3.109375 12.476562 4.515625 28.78125 7 46.132812 7 17.347657 0 33.898438-2.488281 46.375-7 2.734376-.988281 4.429688-2.03125 7.429688-3.109375zm0-43.382813v.882813c0 .597656-2.40625 4.421875-12.9375 8.234375-10.769531 3.898438-25.355469 6.042969-40.898438 6.042969-15.542968 0-29.835937-2.144531-40.613281-6.046875-10.53125-3.8125-12.550781-7.636719-12.550781-8.230469v-22.039063c2.277344 1.210938 4.636719 2.25 7.066406 3.113282 12.472656 4.507812 28.777344 7 46.128906 7 17.347657 0 33.898438-2.488282 46.371094-7 2.734375-.992188 4.433594-2.03125 7.433594-3.109375zm0-41.316406c0 .59375-2.40625 4.417969-12.933594 8.226563-10.773437 3.898437-25.359375 6.042969-40.902344 6.042969-15.542968 0-29.835937-2.148438-40.609374-6.042969-10.535157-3.808594-12.554688-7.632813-12.554688-8.226563v-22.050781c2.273438 1.210937 4.636719 2.25 7.0625 3.113281 12.480469 4.519532 28.785156 7 46.132812 7 17.34375 0 33.890626-2.488281 46.371094-7 2.734375-.988281 4.433594-2.03125 7.433594-3.109375zm-94.738281-50.441406c10.78125-3.902344 25.273437-6.050781 40.808593-6.050781 15.539063 0 30.023438 2.148437 40.800782 6.050781 10.535156 3.8125 12.75 7.636719 12.75 8.230469s-2.214844 4.414062-12.75 8.230469c-10.777344 3.898437-25.265625 6.046874-40.800782 6.046874-15.535156 0-30.027343-2.144531-40.808593-6.046874-10.535157-3.816407-12.75-7.636719-12.75-8.230469s2.214843-4.417969 12.75-8.230469zm0 0"/></g></svg>